<svg xmlns="http://www.w3.org/2000/svg" width="65" height="51" viewBox="0 0 65 51">
    <g fill="none" fill-rule="evenodd">
        <path fill="#33B1E7" d="M20.745 2.222L17.58 23.75h1.692c0-2.196 1.78-3.977 3.976-3.977 2.197 0 3.977 1.78 3.977 3.977h13.306l1.91-3.303L45.12 2.222H20.745z" opacity=".1" transform="translate(5.529 12.82)"/>
        <path stroke="#003A81" stroke-linecap="round" stroke-linejoin="round" stroke-width="1.29" d="M26.771 4.987L6.638 4.987M19.93 11.89L2.712 11.89M10.471 18.59L0 18.59M52.363 8.155L46.567 8.155 45.474 15.594 53.427 15.594 53.603 14.402zM47.118 23.75c0-2.196-1.78-3.977-3.977-3.977-2.196 0-3.977 1.78-3.977 3.977 0 2.196 1.781 3.977 3.977 3.977 2.196 0 3.977-1.78 3.977-3.977z" transform="translate(5.529 12.82)"/>
        <path stroke="#003A81" stroke-linecap="round" stroke-linejoin="round" stroke-width="1.29" d="M45.474 15.595l1.093-7.44h5.796l-.685-3.458H43.61l-2.28 15.515c.543-.279 1.158-.439 1.811-.439 2.197 0 3.977 1.78 3.977 3.977h5.11l1.199-8.155h-7.953zM25.449 23.75c0-2.196-1.78-3.977-3.977-3.977-2.196 0-3.977 1.78-3.977 3.977 0 2.196 1.781 3.977 3.977 3.977 2.196 0 3.977-1.78 3.977-3.977z" transform="translate(5.529 12.82)"/>
        <path stroke="#003A81" stroke-linecap="round" stroke-linejoin="round" stroke-width="1.29" d="M17.047 0l-3.49 23.75h3.938c0-2.196 1.78-3.977 3.977-3.977 2.196 0 3.976 1.78 3.976 3.977h13.716c0-1.544.88-2.879 2.165-3.538L44.3 0H17.048z" transform="translate(5.529 12.82)"/>
    </g>
</svg>
